<?xml version="1.0" standalone="no"?>
<!DOCTYPE svg PUBLIC "-//W3C//DTD SVG 20010904//EN"
 "http://www.w3.org/TR/2001/REC-SVG-20010904/DTD/svg10.dtd">
<svg version="1.0" xmlns="http://www.w3.org/2000/svg"
 width="300.000000pt" height="300.000000pt" viewBox="0 0 300.000000 300.000000"
 preserveAspectRatio="xMidYMid meet">
<metadata>
Created by potrace 1.10, written by Peter Selinger 2001-2011
</metadata>
<g transform="translate(0.000000,300.000000) scale(0.100000,-0.100000)"
fill="#000000" stroke="none">
<path d="M480 2273 c-46 -17 -50 -30 -50 -168 0 -185 -17 -174 270 -177 l225
-3 0 -280 0 -279 -25 -6 c-35 -9 -99 7 -137 33 -18 12 -47 48 -63 79 -17 32
-39 62 -49 67 -28 15 -183 -27 -226 -61 -24 -18 -27 -27 -23 -63 8 -65 49
-145 111 -211 95 -103 219 -154 372 -154 150 0 272 47 367 143 32 31 60 57 63
57 3 0 5 -23 5 -50 0 -55 20 -104 45 -114 9 -3 63 -6 119 -6 145 0 145 0 148
190 l3 145 147 3 147 3 198 -166 c109 -91 209 -168 221 -171 17 -5 30 0 45 15
l22 22 0 548 c0 526 -1 550 -19 570 -17 19 -30 21 -137 21 -118 0 -119 0 -136
-27 -14 -22 -19 -56 -23 -172 l-5 -146 -136 -3 -135 -3 -200 167 c-109 92
-212 175 -229 185 -28 18 -59 19 -465 18 -239 0 -442 -3 -450 -6z m902 -41 c2
-4 98 -87 214 -184 l211 -177 169 -1 169 -2 0 176 0 176 118 0 117 0 0 -561 0
-561 -82 69 c-46 37 -144 119 -218 180 l-135 113 -177 0 -178 0 0 -170 0 -170
-116 0 -117 0 5 189 c4 181 -2 235 -15 136 -16 -113 -125 -255 -237 -307 -187
-88 -450 -47 -569 89 -41 46 -95 144 -107 195 -6 26 -4 27 94 57 114 36 122
37 122 16 0 -25 36 -88 67 -116 55 -52 135 -75 213 -63 l40 7 0 323 0 324
-252 0 -253 0 2 132 c1 73 2 134 3 136 1 6 909 1 912 -6z"/>
<path d="M1020 1659 c0 -276 2 -310 15 -299 23 19 23 610 0 610 -13 0 -15 -41
-15 -311z"/>
<path d="M1101 1703 c1 -257 1 -267 17 -233 14 29 17 76 20 268 3 229 3 232
-17 232 -21 0 -21 -4 -20 -267z"/>
<path d="M1875 1810 c4 -6 62 -10 141 -10 83 0 134 4 134 10 0 6 -54 10 -141
10 -91 0 -138 -4 -134 -10z"/>
<path d="M1590 1663 l0 -88 110 0 110 -1 -32 26 c-18 13 -65 53 -105 87 -40
35 -75 63 -78 63 -3 0 -5 -39 -5 -87z"/>
<path d="M1976 1728 c16 -12 59 -48 95 -80 37 -32 69 -58 73 -58 3 0 6 36 6
80 l0 80 -101 0 -102 0 29 -22z"/>
<path d="M1590 1520 c0 -6 51 -10 134 -10 74 0 143 -3 153 -7 16 -6 16 -5 4
10 -11 14 -34 17 -152 17 -86 0 -139 -4 -139 -10z"/>
</g>
</svg>
