<?xml version="1.0" standalone="no"?>
<!DOCTYPE svg PUBLIC "-//W3C//DTD SVG 20010904//EN"
 "http://www.w3.org/TR/2001/REC-SVG-20010904/DTD/svg10.dtd">
<svg version="1.0" xmlns="http://www.w3.org/2000/svg"
 width="900.000000pt" height="531.000000pt" viewBox="0 0 900.000000 531.000000"
 preserveAspectRatio="xMidYMid meet">
<metadata>
Created by potrace 1.10, written by Peter Selinger 2001-2011
</metadata>
<g transform="translate(0.000000,531.000000) scale(0.100000,-0.100000)"
fill="#000000" stroke="none">
<path d="M163 5283 c-20 -41 -19 -1196 0 -1212 10 -8 335 -12 1168 -13 l1154
-3 0 -1489 0 -1489 -50 -17 c-168 -60 -513 -59 -705 1 -188 60 -322 139 -445
263 -140 140 -258 349 -305 538 -20 78 -21 79 -165 33 -22 -7 -67 -20 -100
-30 -33 -10 -78 -24 -100 -31 -22 -8 -155 -48 -295 -89 -140 -42 -270 -81
-287 -86 -31 -10 -33 -14 -33 -54 0 -42 19 -130 39 -185 5 -14 24 -65 42 -115
31 -89 116 -272 162 -350 233 -400 593 -693 1027 -837 318 -106 435 -121 865
-115 353 5 400 10 570 52 315 78 545 187 790 374 59 45 262 242 300 291 11 14
36 46 56 70 139 173 304 510 374 760 41 147 56 190 66 190 5 0 9 -317 9 -793
0 -603 3 -796 12 -805 9 -9 137 -12 514 -12 276 0 509 3 518 6 14 6 16 84 16
780 l0 774 26 10 c16 6 319 10 795 10 642 0 775 -2 802 -14 18 -8 273 -215
567 -461 647 -540 585 -488 755 -630 77 -64 174 -144 215 -178 41 -34 80 -66
86 -72 6 -5 33 -28 60 -50 26 -22 67 -56 90 -75 161 -136 223 -182 235 -174 5
3 9 1152 9 2585 l0 2579 -533 -2 -532 -3 -3 -804 c-1 -574 -5 -808 -13 -818
-9 -11 -148 -13 -780 -13 l-769 0 -37 33 c-32 28 -470 396 -673 566 -30 25
-57 48 -60 51 -4 5 -147 125 -655 549 -49 42 -92 78 -95 81 -8 9 -117 100
-315 265 -104 87 -191 164 -193 171 -3 12 -334 14 -2085 14 l-2082 0 -12 -27z
m2681 -1239 c3 -9 6 -631 6 -1384 l0 -1368 -54 -46 c-29 -25 -58 -46 -65 -46
-8 0 -11 363 -11 1423 0 783 3 1427 7 1430 3 4 30 7 59 7 38 0 53 -4 58 -16z
m426 -3 c14 -26 14 -1556 0 -1763 -6 -84 -19 -197 -30 -251 -32 -162 -129
-425 -151 -412 -10 7 -13 2428 -2 2438 3 4 44 7 89 7 72 0 85 -3 94 -19z
m4650 -706 c10 -12 10 -21 2 -40 l-12 -25 -581 0 -581 0 -39 28 c-21 15 -39
33 -39 40 0 9 130 12 619 12 543 0 620 -2 631 -15z m-2 -297 c9 -9 12 -105 12
-370 0 -306 -2 -359 -15 -364 -16 -7 -15 -7 -226 171 -85 71 -253 212 -373
313 -284 237 -288 241 -281 252 10 15 868 13 883 -2z m-2508 -25 c14 -10 212
-173 440 -363 228 -190 427 -354 442 -365 15 -11 28 -28 28 -37 0 -17 -29 -18
-468 -18 -351 0 -471 3 -480 12 -9 9 -12 110 -12 393 0 210 3 385 7 388 10 10
16 9 43 -10z m1212 -1012 c33 -13 90 -69 83 -81 -9 -14 -1299 -14 -1326 0 -19
11 -25 43 -13 74 6 14 69 16 619 16 349 0 624 -4 637 -9z"/>
</g>
</svg>
